<svg id="Layer_1" data-name="Layer 1" xmlns="http://www.w3.org/2000/svg" viewBox="0 0 1000 1000"><defs><style>.cls-1{fill:#1d1d1b;}</style></defs><path class="cls-1" d="M687.37,743.27H312.62a56,56,0,0,1-55.89-55.89V312.62a56,56,0,0,1,55.89-55.89H687.37a56,56,0,0,1,55.9,55.89V687.38A56,56,0,0,1,687.37,743.27ZM312.62,290.73a21.92,21.92,0,0,0-21.89,21.89V687.38a21.92,21.92,0,0,0,21.89,21.89H687.37a21.92,21.92,0,0,0,21.9-21.89V312.62a21.92,21.92,0,0,0-21.9-21.89Z"/><polygon class="cls-1" points="644.82 367.48 461 578.33 353.62 474.69 325.44 502.87 461 632.52 674.55 395.65 644.82 367.48"/></svg>